<svg width="50" height="50" viewBox="0 0 50 50" fill="none" xmlns="http://www.w3.org/2000/svg">
<path d="M319.2 340.887C318.389 340.345 317.396 340.146 316.438 340.332C315.48 340.518 314.634 341.075 314.084 341.882L271.701 404.717C252.078 433.81 211.47 444.382 179.34 422.67C147.165 400.968 141.764 359.402 161.387 330.31L203.77 267.474C204.901 265.798 204.452 263.489 202.776 262.358L181.254 247.841C180.442 247.299 179.449 247.1 178.491 247.286C177.533 247.472 176.688 248.029 176.138 248.836L133.755 311.671C102.897 357.419 114.945 419.4 160.684 450.212C206.423 481.024 268.413 469.022 299.225 423.283L341.609 360.447C342.739 358.771 342.291 356.462 340.614 355.331L319.2 340.887ZM394.567 103.526C348.819 72.6687 286.837 84.7166 256.025 130.456L213.597 193.3C213.055 194.112 212.856 195.105 213.042 196.063C213.228 197.021 213.785 197.866 214.591 198.416L236.059 212.897C237.736 214.027 240.045 213.578 241.175 211.902L283.559 149.066C303.182 119.974 343.79 109.402 375.919 131.113C408.094 152.816 413.496 194.381 393.873 223.474L351.489 286.31C350.948 287.121 350.748 288.114 350.934 289.072C351.121 290.03 351.677 290.876 352.484 291.426L374.006 305.943C375.682 307.073 377.991 306.624 379.122 304.948L421.505 242.112C452.317 196.373 440.269 134.392 394.567 103.526ZM309.75 205.009C308.938 204.468 307.946 204.268 306.988 204.455C306.03 204.641 305.184 205.198 304.634 206.004L222.011 328.44C221.469 329.251 221.27 330.244 221.456 331.202C221.642 332.16 222.199 333.006 223.005 333.556L244.419 347.999C246.096 349.13 248.405 348.681 249.535 347.005L332.113 224.578C333.244 222.902 332.795 220.593 331.119 219.462L309.75 205.009Z" fill="currentColor"/>
</svg>
